<svg width="27" height="27" xmlns="http://www.w3.org/2000/svg">
  <path d="M11.3077 22.6153C5.0756 22.6153 0 17.5397 0 11.3076 0 5.0756 5.0756 0 11.3077 0c6.232 0 11.3076 5.0755 11.3076 11.3076 0 2.5191-.8344 4.9157-2.3421 6.8756l6.2724 6.2725a1.478 1.478 0 0 1-.6508 2.4964c-.518.135-1.0684-.0205-1.4335-.401l-6.278-6.278c-1.96 1.5078-4.3565 2.3422-6.8756 2.3422zm0-19.6595c-4.6256 0-8.3519 3.7263-8.3519 8.3518 0 4.6256 3.7263 8.3519 8.3519 8.3519 4.6255 0 8.3518-3.7263 8.3518-8.3519 0-4.6255-3.7263-8.3518-8.3518-8.3518z" fill="#DAE5EF" fill-rule="nonzero"/>
</svg>